<svg width="20" height="21" viewBox="0 0 20 21" fill="none" xmlns="http://www.w3.org/2000/svg">
<path d="M5.46875 11.5938H14.5312C14.7656 11.5938 15 11.3984 15 11.125V9.875C15 9.64062 14.7656 9.40625 14.5312 9.40625H5.46875C5.19531 9.40625 5 9.64062 5 9.875V11.125C5 11.3984 5.19531 11.5938 5.46875 11.5938ZM19.6875 10.5C19.6875 5.14844 15.3516 0.8125 10 0.8125C4.64844 0.8125 0.3125 5.14844 0.3125 10.5C0.3125 15.8516 4.64844 20.1875 10 20.1875C15.3516 20.1875 19.6875 15.8516 19.6875 10.5ZM17.8125 10.5C17.8125 14.8359 14.2969 18.3125 10 18.3125C5.66406 18.3125 2.1875 14.8359 2.1875 10.5C2.1875 6.20312 5.66406 2.6875 10 2.6875C14.2969 2.6875 17.8125 6.20312 17.8125 10.5Z" fill="#043B72"/>
</svg>
