<svg width="20" height="21" viewBox="0 0 20 21" fill="none" xmlns="http://www.w3.org/2000/svg">
<path d="M15 9.875C15 9.64062 14.7656 9.40625 14.5312 9.40625H11.0938V5.96875C11.0938 5.73438 10.8594 5.5 10.625 5.5H9.375C9.10156 5.5 8.90625 5.73438 8.90625 5.96875V9.40625H5.46875C5.19531 9.40625 5 9.64062 5 9.875V11.125C5 11.3984 5.19531 11.5938 5.46875 11.5938H8.90625V15.0312C8.90625 15.3047 9.10156 15.5 9.375 15.5H10.625C10.8594 15.5 11.0938 15.3047 11.0938 15.0312V11.5938H14.5312C14.7656 11.5938 15 11.3984 15 11.125V9.875ZM19.6875 10.5C19.6875 5.14844 15.3516 0.8125 10 0.8125C4.64844 0.8125 0.3125 5.14844 0.3125 10.5C0.3125 15.8516 4.64844 20.1875 10 20.1875C15.3516 20.1875 19.6875 15.8516 19.6875 10.5ZM17.8125 10.5C17.8125 14.8359 14.2969 18.3125 10 18.3125C5.66406 18.3125 2.1875 14.8359 2.1875 10.5C2.1875 6.20312 5.66406 2.6875 10 2.6875C14.2969 2.6875 17.8125 6.20312 17.8125 10.5Z" fill="#043B72"/>
</svg>
