<svg width="80" height="80" viewBox="0 0 80 80" fill="none" xmlns="http://www.w3.org/2000/svg">
<path d="M19.9923 35.5137L21.3985 38.5934L19.9923 41.9918C19.1079 42.4527 17.9923 42.3137 17.2485 41.5715L11.797 36.1184L4.00166 43.9152C3.08604 44.8309 1.60166 44.8293 0.686035 43.9152C-0.228027 42.9996 -0.228027 41.5152 0.686035 40.5996L10.1392 31.1465C11.0548 30.2324 12.5392 30.2324 13.4548 31.1465L18.9063 36.5996L19.9923 35.5137Z" fill="#043B72"/>
<path d="M78.4375 80H39.9834V70L40.9456 69.5312H79.0225L80 70V78.4375C80 79.3005 79.3004 80 78.4375 80Z" fill="#FBBD43"/>
<path d="M80 70V78.4375C80 79.3 79.3 80 78.4375 80H60.0078V69.5312H79.0219L80 70Z" fill="#F58220"/>
<path d="M80 60L78.8581 60.4688H41.3581L39.9834 60V50L41.2661 49.5312H78.8301L80 50V60Z" fill="#FBBD43"/>
<path d="M80 50V60L78.8578 60.4688H60.0078V49.5312H78.8297L80 50Z" fill="#F58220"/>
<path d="M79.9999 50H40.0571V41.5625C40.0571 40.6995 40.7567 40 41.6196 40H78.4374C79.3004 40 79.9999 40.6995 79.9999 41.5625V50Z" fill="#FEDD33"/>
<path d="M80 41.5625V50H60.0078V40H78.4375C79.3 40 80 40.7 80 41.5625Z" fill="#FBBD43"/>
<path d="M39.9834 60H80V70H39.9834V60Z" fill="#FEDD33"/>
<path d="M60.0078 60H80V70H60.0078V60Z" fill="#FBBD43"/>
<path d="M39.9834 70L39.0866 70.4687H0.945469L0 70V61.5625C0 60.6995 0.699531 60 1.5625 60H39.9834V70Z" fill="#FEDD33"/>
<path d="M39.9828 60V70L39.0859 70.4687H19.9922V60H39.9828Z" fill="#FBBD43"/>
<path d="M39.9834 80H1.5625C0.699531 80 0 79.3005 0 78.4375V70H39.9834V80Z" fill="#FBBD43"/>
<path d="M19.9922 70H39.9828V80H19.9922V70Z" fill="#F58220"/>
<path d="M67.6789 38.4487C77.8811 34.2199 82.7235 22.5212 78.4946 12.3189C74.2658 2.11669 62.5671 -2.7257 52.3649 1.50315C42.1626 5.732 37.3202 17.4307 41.5491 27.6329C45.7779 37.8352 57.4766 42.6776 67.6789 38.4487Z" fill="#F58220"/>
<path d="M80.0005 19.9922C80.0005 31.0156 71.0317 39.9844 60.0083 39.9844V0C71.0317 0 80.0005 8.96875 80.0005 19.9922Z" fill="#F58220"/>
<path d="M74.1711 25.8529C77.4084 18.0427 73.7014 9.08696 65.8913 5.84964C58.0811 2.61231 49.1254 6.31932 45.8881 14.1295C42.6507 21.9396 46.3577 30.8954 54.1679 34.1327C61.978 37.37 70.9338 33.663 74.1711 25.8529Z" fill="#FFC01C"/>
<path d="M75.313 19.9922C75.313 28.4312 68.4474 35.2969 60.0083 35.2969V4.6875C68.4474 4.6875 75.313 11.5531 75.313 19.9922Z" fill="#FFC01C"/>
<path d="M62.5013 17.687C61.1784 17.2194 59.0782 16.5025 58.4984 15.5997C57.9748 14.7845 58.8556 14.0053 59.984 13.9414C61.1763 13.8737 61.7484 14.4514 62.1095 14.7844C63.061 15.6617 64.5438 15.602 65.4212 14.6503C66.2987 13.6988 66.2387 12.2159 65.2873 11.3384C65.0757 11.1736 64.2095 10.1242 62.2471 9.55328V9.35547C62.2471 8.06109 61.1978 7.01172 59.9034 7.01172C58.609 7.01172 57.5596 8.06109 57.5596 9.35547V9.69516C53.3365 11.2302 52.3656 16.9959 55.584 19.5206C56.9976 20.6294 58.9931 21.4187 60.939 22.1067C62.1006 22.5172 62.2187 23.3502 62.1135 23.9764C61.9963 24.6741 61.3954 25.8577 59.8878 25.8677C58.3231 25.8772 57.9556 25.8202 56.8132 25.0728C55.7298 24.3642 54.2775 24.6678 53.5687 25.7511C52.8601 26.8344 53.1637 28.2869 54.247 28.9955C55.4932 29.8108 56.4798 30.2148 57.5595 30.4042V30.6287C57.5595 31.9231 58.6089 32.9725 59.9032 32.9725C61.1976 32.9725 62.247 31.9231 62.247 30.6287V30.1394C67.9262 28.0864 68.6787 19.8705 62.5013 17.687Z" fill="white"/>
<path d="M62.1099 14.7844C63.0614 15.6625 64.5442 15.6016 65.4208 14.65C66.2989 13.6984 66.2396 12.2156 65.288 11.3391C65.0755 11.1734 64.2099 10.125 62.2474 9.55312V9.35625C62.2474 8.09687 61.2536 7.07031 60.0083 7.01562V13.9406C61.1849 13.8812 61.7521 14.4547 62.1099 14.7844ZM62.5021 17.6875C61.7771 17.4312 60.8208 17.1 60.0083 16.7047V21.7687C61.0685 22.165 62.3777 22.4159 62.113 23.9766C61.9989 24.6547 61.4286 25.7937 60.0083 25.8625V32.9687C61.2536 32.9141 62.2474 31.8875 62.2474 30.6281V30.1391C67.9255 28.0859 68.6786 19.8703 62.5021 17.6875Z" fill="white"/>
<path d="M32.9688 28.1958C32.9688 26.9241 31.9417 25.8521 30.625 25.8521C26.0928 25.8521 28.1708 25.8521 23.5938 25.8521C22.2994 25.8521 21.25 26.9014 21.25 28.1958C21.25 29.4902 22.2994 30.5396 23.5938 30.5396C23.6509 30.5396 25.0559 30.5396 24.9672 30.5396L19.9922 35.5146V41.9927C20.1984 41.8849 20.3906 41.7458 20.5641 41.5724L28.2813 33.8536V35.2271C28.2813 36.5214 29.3306 37.5708 30.625 37.5708C30.6406 37.5636 32.7505 37.4969 32.9567 35.4666C32.9752 35.2843 32.9689 28.3896 32.9688 28.1958Z" fill="#043B72"/>
</svg>
