<svg width="80" height="80" viewBox="0 0 80 80" fill="none" xmlns="http://www.w3.org/2000/svg">
<path d="M65.7812 26.5V44.6873C65.7812 52.2812 52.5153 56.406 40 56.406C27.4847 56.406 14.2188 52.2812 14.2188 44.6873V26.5C14.2188 25.2341 15.2496 24.1562 16.5625 24.1562H63.4375C64.7504 24.1562 65.7812 25.2341 65.7812 26.5Z" fill="#043B72"/>
<path d="M65.7812 26.5V44.6873C65.7812 52.2812 52.5153 56.406 40 56.406V24.1562H63.4375C64.7504 24.1562 65.7812 25.2341 65.7812 26.5Z" fill="#043B72"/>
<path d="M80 21.25C80 22.2345 79.3909 23.125 78.4998 23.4528L40.8435 37.5153C40.5627 37.6093 40.2814 37.6562 40 37.6562C39.7186 37.6562 39.4373 37.6093 39.1565 37.5153L1.50024 23.4528V19.0466L39.1565 4.98413C39.4373 4.89075 39.7186 4.84375 40 4.84375C40.2814 4.84375 40.5627 4.89075 40.8435 4.98413L78.4998 19.0466C79.3909 19.375 80 20.2655 80 21.25Z" fill="#043B72"/>
<path d="M80 21.25C80 22.2345 79.3909 23.125 78.4998 23.4528L40.8435 37.5153C40.5627 37.6093 40.2814 37.6562 40 37.6562V4.84375C40.2814 4.84375 40.5627 4.89075 40.8435 4.98413L78.4998 19.0466C79.3909 19.375 80 20.2655 80 21.25Z" fill="#043B72"/>
<path d="M42.3438 21.25C42.3438 22.5623 41.3129 23.5938 40 23.5938H4.6875V58.3746L9.23401 72.0624C9.65637 73.2806 8.99963 74.6405 7.78137 75.0153C6.5155 75.4376 5.20325 74.7809 4.82849 73.562L4.6875 73.1409C4.50012 74.2657 3.51562 75.1562 2.34375 75.1562C1.03088 75.1562 0 74.1248 0 72.8125V21.25C0 19.9371 1.03088 18.9062 2.34375 18.9062H40C41.3129 18.9062 42.3438 19.9371 42.3438 21.25Z" fill="#F58220"/>
</svg>
