<svg width="80" height="80" viewBox="0 0 80 80" fill="none" xmlns="http://www.w3.org/2000/svg">
<g clip-path="url(#clip0_125_80)">
<path d="M70.6214 53.4235C68.4711 59.2511 65.2191 64.3182 60.9546 68.4827C56.1005 73.2227 49.7443 76.9891 42.0624 79.6759C41.8103 79.7638 41.5472 79.8358 41.283 79.8889C40.9338 79.9579 40.5786 79.9951 40.2264 80H40.1575C39.7821 80 39.4049 79.9622 39.0308 79.8889C38.7665 79.8358 38.5071 79.7638 38.2562 79.6777C30.5652 76.9952 24.201 73.2306 19.342 68.4906C15.0757 64.3262 11.8243 59.2621 9.6771 53.4344C5.77268 42.8387 5.99485 31.1664 6.17368 21.7865L6.17674 21.6424C6.21275 20.8679 6.23594 20.0543 6.24876 19.1559C6.31406 14.7448 9.82115 11.0955 14.2328 10.8496C23.4308 10.3363 30.5463 7.33639 36.626 1.41048L36.6791 1.36165C37.6886 0.435748 38.9606 -0.0183533 40.2264 0.000567642C41.4471 0.0164368 42.663 0.469928 43.6365 1.36165L43.6884 1.41048C49.7693 7.33639 56.8848 10.3363 66.0828 10.8496C70.4944 11.0955 74.0015 14.7448 74.0668 19.1559C74.0796 20.0604 74.1028 20.8728 74.1388 21.6424L74.1407 21.7035C74.3189 31.101 74.5398 42.7966 70.6214 53.4235Z" fill="#043B72"/>
<path d="M70.6215 53.4234C68.4712 59.251 65.2192 64.3182 60.9547 68.4826C56.1006 73.2226 49.7444 76.9891 42.0625 79.6758C41.8104 79.7637 41.5474 79.8358 41.2831 79.8889C40.934 79.9578 40.5787 79.9951 40.2266 79.9999V0.000488281C41.4473 0.0163575 42.6631 0.469849 43.6366 1.36157L43.6885 1.4104C49.7694 7.33631 56.8849 10.3362 66.0829 10.8495C70.4945 11.0955 74.0016 14.7448 74.0669 19.1558C74.0797 20.0603 74.1029 20.8727 74.1389 21.6424L74.1408 21.7034C74.319 31.101 74.5399 42.7965 70.6215 53.4234Z" fill="#043B72"/>
<path d="M60.0939 39.9998C60.0939 50.9696 51.187 59.8991 40.2263 59.9382H40.1561C29.1631 59.9382 20.2178 50.9934 20.2178 39.9998C20.2178 29.0067 29.1631 20.062 40.1561 20.062H40.2263C51.187 20.1011 60.0939 29.0305 60.0939 39.9998Z" fill="#F58220"/>
<path d="M60.0941 39.9998C60.0941 50.9696 51.1873 59.8991 40.2266 59.9382V20.062C51.1873 20.1011 60.0941 29.0305 60.0941 39.9998Z" fill="#F58220"/>
<path d="M49.206 37.1287L40.2265 46.1094L38.2862 48.0497C37.8278 48.5081 37.2266 48.737 36.626 48.737C36.0248 48.737 35.4243 48.5081 34.9653 48.0497L30.7935 43.8761C29.8768 42.9594 29.8768 41.4744 30.7935 40.557C31.709 39.6403 33.1959 39.6403 34.1126 40.557L36.626 43.0705L45.8869 33.8096C46.8037 32.8922 48.2905 32.8922 49.206 33.8096C50.1227 34.7263 50.1227 36.2132 49.206 37.1287Z" fill="white"/>
<path d="M49.2061 37.1287L40.2266 46.1094V39.4694L45.887 33.8096C46.8037 32.8922 48.2905 32.8922 49.2061 33.8096C50.1228 34.7264 50.1228 36.2132 49.2061 37.1287Z" fill="white"/>
</g>
<defs>
<clipPath id="clip0_125_80">
<rect width="80" height="80" fill="white"/>
</clipPath>
</defs>
</svg>
