<svg width="80" height="80" viewBox="0 0 80 80" fill="none" xmlns="http://www.w3.org/2000/svg">
<path d="M52.3919 12.8104C51.7877 12.3388 50.9866 12.1969 50.2588 12.4235C49.5309 12.65 48.9541 13.22 48.7206 13.9479C48.6566 14.1493 48.5878 14.3507 48.5147 14.5499C47.4253 10.5205 45.3134 6.82833 42.3439 3.75645C42.2434 3.65255 40.0714 1.4538 39.3134 0.686611C38.6405 0.0159862 37.6334 -0.180889 36.7591 0.178486C35.8848 0.540049 35.3127 1.39614 35.3127 2.34364V3.95958C35.3127 9.05442 32.7767 12.9913 30.648 15.3991C23.3237 23.6893 25.5805 31.8649 30.1353 36.7538C30.5794 37.2299 31.2019 37.4999 31.8519 37.4999H42.3439H52.8267C53.495 37.4999 54.1314 37.2161 54.5753 36.7194C57.267 33.7074 58.7502 29.8232 58.7502 25.7811C58.7502 20.6702 56.4339 15.9438 52.3919 12.8104Z" fill="#F58220"/>
<path d="M54.5752 36.7193C57.2669 33.7073 58.75 29.8231 58.75 25.781C58.75 20.6701 56.4338 15.9437 52.3917 12.8103C51.7875 12.3387 50.9864 12.1968 50.2586 12.4234C49.5308 12.6499 48.9539 13.2199 48.7205 13.9478C48.6564 14.1492 48.5877 14.3506 48.5145 14.5498C47.4252 10.5204 45.3133 6.82822 42.3438 3.75635V37.4998H52.8266C53.4948 37.4998 54.1311 37.216 54.5752 36.7193Z" fill="#F58220"/>
<path d="M70.4688 4.6875H68.125V2.34375C68.125 1.04828 67.0767 0 65.7812 0C64.4858 0 63.4375 1.04828 63.4375 2.34375V4.6875H61.0938C59.7983 4.6875 58.75 5.73578 58.75 7.03125C58.75 8.32672 59.7983 9.375 61.0938 9.375H63.4375V11.7188C63.4375 13.0142 64.4858 14.0625 65.7812 14.0625C67.0767 14.0625 68.125 13.0142 68.125 11.7188V9.375H70.4688C71.7642 9.375 72.8125 8.32672 72.8125 7.03125C72.8125 5.73578 71.7642 4.6875 70.4688 4.6875Z" fill="#FFF0E2"/>
<path d="M18.9062 23.4375H16.5625V21.0938C16.5625 19.7983 15.5142 18.75 14.2188 18.75C12.9233 18.75 11.875 19.7983 11.875 21.0938V23.4375H9.53125C8.23578 23.4375 7.1875 24.4858 7.1875 25.7812C7.1875 27.0767 8.23578 28.125 9.53125 28.125H11.875V30.4688C11.875 31.7642 12.9233 32.8125 14.2188 32.8125C15.5142 32.8125 16.5625 31.7642 16.5625 30.4688V28.125H18.9062C20.2017 28.125 21.25 27.0767 21.25 25.7812C21.25 24.4858 20.2017 23.4375 18.9062 23.4375Z" fill="#FFF0E2"/>
<path d="M52.5338 45.8383C52.0897 45.3347 51.4489 45.0464 50.776 45.0464H42.3439H33.9119C33.2389 45.0464 32.5982 45.3348 32.1541 45.8383C31.71 46.344 31.5039 47.0147 31.5864 47.6808L35.331 77.947C35.4775 79.1189 36.4753 80.0002 37.6564 80.0002H42.3439H47.0314C48.2125 80.0002 49.2103 79.1189 49.3569 77.947L53.1014 47.6808C53.1836 47.0148 52.9778 46.3442 52.5338 45.8383Z" fill="#043B72"/>
<path d="M49.3567 77.947L53.1012 47.6808C53.1836 47.0147 52.9777 46.344 52.5336 45.8383C52.0895 45.3347 51.4487 45.0464 50.7758 45.0464H42.3438V80.0002H47.0312C48.2123 80.0002 49.2102 79.1189 49.3567 77.947Z" fill="#043B72"/>
<path d="M62.9613 33.7441C62.522 33.1581 61.8307 32.8125 61.0937 32.8125H42.3437H23.5937C22.8567 32.8125 22.1654 33.1581 21.726 33.7441C21.282 34.33 21.1401 35.0898 21.337 35.7972C22.8887 41.2491 29.2699 51.5625 42.3437 51.5625C55.4174 51.5625 61.7987 41.2491 63.3504 35.7972C63.5473 35.0898 63.4054 34.33 62.9613 33.7441Z" fill="#282832"/>
<path d="M63.3505 35.7972C63.5473 35.09 63.4055 34.33 62.9614 33.7441C62.522 33.1581 61.8308 32.8125 61.0937 32.8125H42.3438V51.5625C55.4175 51.5625 61.7987 41.2491 63.3505 35.7972Z" fill="#282832"/>
</svg>
