<svg width="16" height="15" viewBox="0 0 16 15" fill="none" xmlns="http://www.w3.org/2000/svg">
<path d="M14.6875 8.625H12.1445L13.4297 7.36719C14.25 6.54688 13.6484 5.125 12.5 5.125H10.75V2.0625C10.75 1.35156 10.1484 0.75 9.4375 0.75H6.8125C6.07422 0.75 5.5 1.35156 5.5 2.0625V5.125H3.75C2.57422 5.125 1.97266 6.54688 2.82031 7.36719L4.07812 8.625H1.5625C0.824219 8.625 0.25 9.22656 0.25 9.9375V13.4375C0.25 14.1758 0.824219 14.75 1.5625 14.75H14.6875C15.3984 14.75 16 14.1758 16 13.4375V9.9375C16 9.22656 15.3984 8.625 14.6875 8.625ZM3.75 6.4375H6.8125V2.0625H9.4375V6.4375H12.5L8.125 10.8125L3.75 6.4375ZM14.6875 13.4375H1.5625V9.9375H5.39062L7.19531 11.7422C7.6875 12.2617 8.53516 12.2617 9.02734 11.7422L10.832 9.9375H14.6875V13.4375ZM12.2812 11.6875C12.2812 12.0703 12.5547 12.3438 12.9375 12.3438C13.293 12.3438 13.5938 12.0703 13.5938 11.6875C13.5938 11.332 13.293 11.0312 12.9375 11.0312C12.5547 11.0312 12.2812 11.332 12.2812 11.6875Z" fill="#7E7E84"/>
</svg>
