<svg width="30" height="30" viewBox="0 0 30 30" fill="none" xmlns="http://www.w3.org/2000/svg">
<path d="M4.8383 19.3553H3.87051C2.53434 19.3553 1.45117 18.2721 1.45117 16.936C1.45117 16.1343 2.10109 15.4844 2.90277 15.4844H4.83824V19.3553H4.8383Z" fill="#BD4150"/>
<path d="M23.2258 0H5.32262L4.82422 0.967734V29.5312H27.5807L28.5484 29.0323V5.3226L23.2258 0Z" fill="#ECEAEC"/>
<path d="M5.32223 27.5807V0C4.78779 0 4.35449 0.433242 4.35449 0.967734V29.0323C4.35449 29.5668 4.78779 30 5.32223 30H27.5803C28.1147 30 28.548 29.5667 28.548 29.0323H6.77383C5.97209 29.0323 5.32223 28.3823 5.32223 27.5807Z" fill="#DAD8DB"/>
<path d="M28.5482 5.23951C28.5482 4.98287 28.4462 4.73672 28.2647 4.5552L23.9928 0.283418C23.8113 0.101953 23.5651 0 23.3085 0H23.2256V4.83873C23.2256 5.10592 23.4422 5.3226 23.7095 5.3226H28.5482V5.23951Z" fill="#DAD8DB"/>
<path d="M17.9032 18.3864H2.90322C2.73354 18.3864 2.57059 18.3573 2.41918 18.3037L1.95312 19.0813V25.1946C1.95312 25.9963 2.60305 26.6462 3.40473 26.6462H17.9032L18.871 26.1283V19.3541C18.871 18.8196 18.4377 18.3864 17.9032 18.3864Z" fill="#E15F78"/>
<path d="M2.41891 18.3045C1.85641 18.1046 1.45117 17.5667 1.45117 16.9355V25.6452C1.45117 26.4469 2.10109 27.0968 2.90277 27.0968H17.9028C18.4372 27.0968 18.8705 26.6635 18.8705 26.1291H3.87051C3.06883 26.1291 2.41891 25.4792 2.41891 24.6775V18.3045Z" fill="#DB4655"/>
<path d="M15.2603 22.2208H14.3105V21.3037H15.3841C15.6516 21.3037 15.868 21.087 15.868 20.8198C15.868 20.5526 15.6516 20.3359 15.3841 20.3359H13.8266C13.5592 20.3359 13.3428 20.5526 13.3428 20.8198V24.6624C13.3428 24.9296 13.5592 25.1463 13.8266 25.1463C14.0941 25.1463 14.3105 24.9296 14.3105 24.6624V23.1886H15.2603C15.5278 23.1886 15.7442 22.972 15.7442 22.7048C15.7442 22.4376 15.5277 22.2208 15.2603 22.2208Z" fill="white"/>
<path d="M6.38598 20.3223H5.30814C5.17959 20.3223 5.05631 20.3735 4.96555 20.4645C4.87525 20.5552 4.82457 20.6782 4.82457 20.8061H4.82422V24.6771C4.82422 24.9443 5.04066 25.161 5.30809 25.161C5.57551 25.161 5.79195 24.9443 5.79195 24.6771V23.477C6.00904 23.4758 6.2477 23.4748 6.38592 23.4748C7.2667 23.4748 7.98354 22.7676 7.98354 21.8987C7.98359 21.0294 7.26676 20.3223 6.38598 20.3223ZM6.38598 22.507C6.24893 22.507 6.01268 22.5079 5.79676 22.5091C5.79582 22.2859 5.79348 21.29 5.79348 21.29H6.38604C6.7277 21.29 7.01592 21.5688 7.01592 21.8986C7.01592 22.2284 6.72764 22.507 6.38598 22.507Z" fill="white"/>
<path d="M10.443 20.3799H9.37938C9.25082 20.3799 9.12754 20.4309 9.03678 20.5219C8.94608 20.6128 8.89504 20.7361 8.89551 20.8647L8.89832 22.7378C8.89832 23.2602 8.90307 24.622 8.90307 24.622C8.90354 24.7503 8.95504 24.8734 9.04627 24.9639C9.13651 25.0537 9.25938 25.1042 9.38699 25.1042H9.38887C9.38887 25.1042 10.1775 25.1012 10.4828 25.096C11.6192 25.0759 12.4442 24.0859 12.4442 22.7421C12.4442 21.3292 11.6399 20.3799 10.443 20.3799ZM10.4657 24.1282C10.3272 24.1305 10.0877 24.1327 9.8694 24.1339C9.86799 23.6909 9.86612 23.0572 9.86612 22.7378L9.86424 21.3476H10.4431C11.4269 21.3476 11.4765 22.5091 11.4765 22.742C11.4764 23.4232 11.1641 24.1159 10.4657 24.1282Z" fill="white"/>
<path d="M11.5972 16.3688C11.2239 16.3688 10.8865 16.1745 10.6494 15.8081C10.2969 15.2642 10.3895 14.6483 10.9031 14.118C11.421 13.5831 12.4809 13.0799 13.7563 12.669C14.1541 11.9191 14.5591 11.0414 14.9376 10.071C15.1611 9.49763 15.3416 8.98066 15.4862 8.5183C14.8488 7.3497 14.4698 6.26173 14.5704 5.55527C14.673 4.83843 15.2084 4.43489 16.0041 4.47884C16.2404 4.49161 16.8041 4.61495 16.9402 5.48296C17.0442 6.14665 16.8693 7.21951 16.5187 8.43867C17.1821 9.55787 18.0918 10.7566 18.9815 11.6767C20.3263 11.5947 21.4661 11.6927 22.0392 12.0386C22.4881 12.3094 22.6644 12.7509 22.5108 13.2195C22.2594 13.9852 21.6522 14.336 20.8848 14.1572C20.2389 14.0064 19.4384 13.4425 18.6266 12.6595C17.321 12.7744 15.7843 13.0402 14.4362 13.4366C13.6315 14.8809 12.7615 16.0053 12.0311 16.2846C11.8836 16.3411 11.7381 16.3688 11.5972 16.3688ZM11.4612 15.2822C11.542 15.4065 11.5864 15.4039 11.6072 15.4015C11.9153 15.3701 12.4284 14.8382 13.0144 13.9392C12.6269 14.1053 12.2796 14.2853 11.9876 14.4786C11.2552 14.9637 11.4106 15.2033 11.4612 15.2822ZM19.9856 12.5956C20.3991 12.9188 20.7833 13.1397 21.1046 13.2149C21.3555 13.2732 21.4845 13.2435 21.5913 12.9181C21.4486 12.7017 20.8414 12.5977 19.9856 12.5956ZM16.1425 9.61201C15.8273 10.5094 15.4417 11.4386 15.0207 12.3094C15.9275 12.0817 16.8834 11.9023 17.7964 11.7885C17.2062 11.1196 16.6358 10.3683 16.1425 9.61201ZM15.9096 5.42683C15.566 5.42683 15.5481 5.55562 15.5282 5.69167C15.4777 6.04915 15.6033 6.55757 15.8514 7.14374C16.0702 6.09919 16.0258 5.54659 15.9195 5.42683C15.9162 5.42683 15.9129 5.42683 15.9096 5.42683Z" fill="#E15F78"/>
</svg>
